<svg width="32" height="32" viewBox="0 0 32 32" fill="none" xmlns="http://www.w3.org/2000/svg">
<path d="M23.0333 24.1667L22.4667 23.6C22.2667 23.4 22.028 23.3 21.7507 23.3C21.4733 23.3 21.2342 23.4 21.0333 23.6C20.8333 23.8 20.7333 24.0333 20.7333 24.3C20.7333 24.5667 20.8333 24.8 21.0333 25L22.3333 26.3C22.5333 26.5 22.7667 26.6 23.0333 26.6C23.3 26.6 23.5333 26.5 23.7333 26.3L26.9667 23.1333C27.1667 22.9333 27.2667 22.6942 27.2667 22.416C27.2667 22.1378 27.1667 21.8991 26.9667 21.7C26.7667 21.5 26.5276 21.4 26.2493 21.4C25.9711 21.4 25.7324 21.5 25.5333 21.7L23.0333 24.1667ZM22.6667 12C23.0444 12 23.3613 11.872 23.6173 11.616C23.8733 11.36 24.0009 11.0436 24 10.6667C24 10.2889 23.872 9.972 23.616 9.716C23.36 9.46 23.0436 9.33245 22.6667 9.33334H9.33333C8.95556 9.33334 8.63867 9.46134 8.38267 9.71734C8.12667 9.97334 7.99911 10.2898 8 10.6667C8 11.0444 8.128 11.3613 8.384 11.6173C8.64 11.8733 8.95644 12.0009 9.33333 12H22.6667ZM24 30.6667C22.1556 30.6667 20.5836 30.0164 19.284 28.716C17.9844 27.4156 17.3342 25.8436 17.3333 24C17.3333 22.1556 17.9836 20.5831 19.284 19.2827C20.5844 17.9822 22.1564 17.3324 24 17.3333C25.8444 17.3333 27.4169 17.9836 28.7173 19.284C30.0178 20.5844 30.6676 22.1564 30.6667 24C30.6667 25.8444 30.0164 27.4169 28.716 28.7173C27.4156 30.0178 25.8436 30.6676 24 30.6667ZM6.66667 4H25.3333C26.0667 4 26.6947 4.26134 27.2173 4.784C27.74 5.30667 28.0009 5.93422 28 6.66667V15.5667C27.3778 15.2556 26.7276 15.0276 26.0493 14.8827C25.3711 14.7378 24.688 14.6658 24 14.6667H9.33333C8.95556 14.6667 8.63867 14.7947 8.38267 15.0507C8.12667 15.3067 7.99911 15.6231 8 16C8 16.3778 8.128 16.6947 8.384 16.9507C8.64 17.2067 8.95644 17.3342 9.33333 17.3333H17.4667C17.0889 17.7111 16.7391 18.1222 16.4173 18.5667C16.0956 19.0111 15.812 19.4889 15.5667 20H9.33333C8.95556 20 8.63867 20.128 8.38267 20.384C8.12667 20.64 7.99911 20.9564 8 21.3333C8 21.7111 8.128 22.028 8.384 22.284C8.64 22.54 8.95644 22.6676 9.33333 22.6667H14.7667C14.7222 22.8889 14.6942 23.1058 14.6827 23.3173C14.6711 23.5289 14.6658 23.7564 14.6667 24C14.6667 24.9333 14.7947 25.828 15.0507 26.684C15.3067 27.54 15.6898 28.3564 16.2 29.1333C16.0889 29.1556 15.972 29.1387 15.8493 29.0827C15.7267 29.0267 15.6213 28.9547 15.5333 28.8667L14.4667 27.8C14.3333 27.6667 14.1778 27.6 14 27.6C13.8222 27.6 13.6667 27.6667 13.5333 27.8L12.4667 28.8667C12.3333 29 12.1778 29.0667 12 29.0667C11.8222 29.0667 11.6667 29 11.5333 28.8667L10.4667 27.8C10.3333 27.6667 10.1778 27.6 10 27.6C9.82222 27.6 9.66667 27.6667 9.53333 27.8L8.46667 28.8667C8.33333 29 8.17778 29.0667 8 29.0667C7.82222 29.0667 7.66667 29 7.53333 28.8667L6.46667 27.8C6.33333 27.6667 6.17778 27.6 6 27.6C5.82222 27.6 5.66667 27.6667 5.53333 27.8L4.46667 28.8667L4 29.1667V6.66667C4 5.93334 4.26133 5.30534 4.784 4.78267C5.30667 4.26 5.93422 3.99911 6.66667 4Z" fill="white"/>
</svg>
