<svg width="50" height="50" viewBox="0 0 50 50" fill="none" xmlns="http://www.w3.org/2000/svg">
<rect width="50" height="50" rx="15.2581" fill="#3F3F3F"/>
<path d="M20.2239 13.3333C20.5972 12.5467 21.4026 12 22.3332 12H27.6666C28.5972 12 29.4012 12.5467 29.7759 13.3333C30.6866 13.3413 31.3972 13.3827 32.0319 13.6307C32.7895 13.927 33.4485 14.4307 33.9332 15.084C34.4226 15.7427 34.6532 16.5867 34.9679 17.748L35.0172 17.9293L35.0199 17.9387L36.1852 22.3707L36.2012 22.348C36.2572 22.408 36.3106 22.472 36.3626 22.5387C37.5639 24.0773 36.9919 26.3653 35.8479 30.94C35.7439 31.3573 35.6479 31.744 35.5546 32.104L32.2519 28.14L34.6919 24.56L34.0186 21.9973L30.9199 26.5427L26.3012 21H28.0879C30.6119 21 32.4612 21 33.8186 21.236L33.0866 18.452C32.6999 17.0333 32.5626 16.592 32.3266 16.276C32.0659 15.9243 31.7115 15.6531 31.3039 15.4933C31.0106 15.3787 30.6559 15.3453 29.7732 15.336C29.5837 15.7342 29.2853 16.0706 28.9124 16.3061C28.5396 16.5416 28.1076 16.6666 27.6666 16.6667H22.3332C21.8922 16.6666 21.4603 16.5416 21.0874 16.3061C20.7146 16.0706 20.4161 15.7342 20.2266 15.336C19.3439 15.3453 18.9892 15.3787 18.6959 15.4933C18.2879 15.6529 17.933 15.9241 17.6719 16.276C17.4372 16.592 17.2999 17.0333 16.9119 18.452L16.1812 21.236C17.5386 21 19.3879 21 21.9132 21H23.6986L19.0799 26.5427L15.9812 21.9973L15.3066 24.56L17.7466 28.14L14.4439 32.104C14.3506 31.744 14.2546 31.3573 14.1506 30.94C13.0066 26.3653 12.4346 24.0773 13.6359 22.5387C13.6879 22.472 13.7426 22.408 13.7972 22.348L13.8132 22.3707L14.9786 17.9387L14.9812 17.9293L15.0306 17.748C15.3466 16.5867 15.5772 15.7413 16.0652 15.0827C16.5502 14.4298 17.2091 13.9267 17.9666 13.6307C18.6012 13.3827 19.3106 13.3413 20.2226 13.3347L20.2239 13.3333Z" fill="white"/>
<path d="M15.136 34.4C15.4467 35.1907 15.8027 35.7427 16.328 36.1533C17.4133 37 18.9133 37 21.9133 37H23.7893L18.92 29.8587L15.136 34.4ZM26.2107 37H28.0867C31.0867 37 32.5867 37 33.672 36.1533C34.1973 35.7427 34.5533 35.1907 34.864 34.3987L31.08 29.8587L26.2107 37ZM25 35.2253L20.252 28.26L25 22.5627L29.748 28.26L25 35.2253Z" fill="white"/>
</svg>
