<svg width="32" height="32" viewBox="0 0 32 32" fill="none" xmlns="http://www.w3.org/2000/svg">
<path d="M18.6666 26C18.6666 23.3333 20.1333 20.9333 22.2666 19.7333C20.5333 19.0667 18.3999 18.6667 15.9999 18.6667C10.1333 18.6667 5.33325 21.0667 5.33325 24V26.6667H18.6666V26ZM25.9999 21.3333C23.4666 21.3333 21.3333 23.4667 21.3333 26C21.3333 28.5333 23.4666 30.6667 25.9999 30.6667C28.5333 30.6667 30.6666 28.5333 30.6666 26C30.6666 23.4667 28.5333 21.3333 25.9999 21.3333ZM21.3333 10.6667C21.3333 13.6 18.9333 16 15.9999 16C13.0666 16 10.6666 13.6 10.6666 10.6667C10.6666 7.73334 13.0666 5.33334 15.9999 5.33334C18.9333 5.33334 21.3333 7.73334 21.3333 10.6667Z" fill="white"/>
<circle cx="25.9999" cy="26" r="4.66667" fill="#64DF04"/>
</svg>
