<svg width="50" height="50" viewBox="0 0 50 50" fill="none" xmlns="http://www.w3.org/2000/svg">
<rect width="50" height="50" rx="15.2581" fill="#3F3F3F"/>
<path d="M27.6666 35C27.6666 32.3333 29.1333 29.9333 31.2666 28.7333C29.5333 28.0667 27.3999 27.6667 24.9999 27.6667C19.1333 27.6667 14.3333 30.0667 14.3333 33V35.6667H27.6666V35ZM34.9999 30.3333C32.4666 30.3333 30.3333 32.4667 30.3333 35C30.3333 37.5333 32.4666 39.6667 34.9999 39.6667C37.5333 39.6667 39.6666 37.5333 39.6666 35C39.6666 32.4667 37.5333 30.3333 34.9999 30.3333ZM30.3333 19.6667C30.3333 22.6 27.9333 25 24.9999 25C22.0666 25 19.6666 22.6 19.6666 19.6667C19.6666 16.7333 22.0666 14.3333 24.9999 14.3333C27.9333 14.3333 30.3333 16.7333 30.3333 19.6667Z" fill="white"/>
<circle cx="34.9999" cy="35" r="4.66667" fill="#64DF04"/>
</svg>
