<svg width="32" height="32" viewBox="0 0 32 32" fill="none" xmlns="http://www.w3.org/2000/svg">
<path d="M22.0374 2.66667H9.96272C8.35872 2.66667 7.55738 2.66667 6.91205 3.06534C6.26805 3.46267 5.90938 4.18 5.19205 5.61467L3.32138 10.3467C2.88805 11.44 2.51071 12.728 3.23871 13.652C3.58182 14.0875 4.05213 14.4052 4.58422 14.561C5.11631 14.7167 5.68371 14.7028 6.20749 14.521C6.73128 14.3393 7.1854 13.9988 7.50667 13.547C7.82795 13.0952 8.0004 12.5544 8.00005 12C8.00005 12.7072 8.281 13.3855 8.7811 13.8856C9.28119 14.3857 9.95947 14.6667 10.6667 14.6667C11.374 14.6667 12.0522 14.3857 12.5523 13.8856C13.0524 13.3855 13.3334 12.7072 13.3334 12C13.3334 12.7072 13.6143 13.3855 14.1144 13.8856C14.6145 14.3857 15.2928 14.6667 16 14.6667C16.7073 14.6667 17.3856 14.3857 17.8857 13.8856C18.3858 13.3855 18.6667 12.7072 18.6667 12C18.6667 12.7072 18.9477 13.3855 19.4478 13.8856C19.9479 14.3857 20.6261 14.6667 21.3334 14.6667C22.0406 14.6667 22.7189 14.3857 23.219 13.8856C23.7191 13.3855 24 12.7072 24 12C24 12.5543 24.1726 13.0949 24.494 13.5465C24.8154 13.9981 25.2695 14.3384 25.7932 14.5199C26.317 14.7015 26.8842 14.7153 27.4162 14.5596C27.9482 14.4038 28.4183 14.0861 28.7614 13.6507C29.4894 12.7267 29.1107 11.4387 28.6787 10.3453L26.8067 5.61467C26.0894 4.18 25.732 3.46267 25.0867 3.06534C24.4427 2.66667 23.64 2.66667 22.0374 2.66667Z" fill="white"/>
<path fill-rule="evenodd" clip-rule="evenodd" d="M26.6667 28.3333H29.3334C29.5986 28.3333 29.853 28.4387 30.0405 28.6262C30.2281 28.8138 30.3334 29.0681 30.3334 29.3333C30.3334 29.5986 30.2281 29.8529 30.0405 30.0404C29.853 30.228 29.5986 30.3333 29.3334 30.3333H2.66675C2.40153 30.3333 2.14718 30.228 1.95964 30.0404C1.7721 29.8529 1.66675 29.5986 1.66675 29.3333C1.66675 29.0681 1.7721 28.8138 1.95964 28.6262C2.14718 28.4387 2.40153 28.3333 2.66675 28.3333H5.33341V16.6667C6.32541 16.6667 7.24408 16.3573 8.00008 15.8307C8.78209 16.3765 9.71312 16.6683 10.6667 16.6667C11.6587 16.6667 12.5774 16.3573 13.3334 15.8307C14.1154 16.3765 15.0465 16.6683 16.0001 16.6667C16.9921 16.6667 17.9107 16.3573 18.6667 15.8307C19.4488 16.3765 20.3798 16.6683 21.3334 16.6667C22.3254 16.6667 23.2441 16.3573 24.0001 15.8307C24.7821 16.3765 25.7131 16.6683 26.6667 16.6667V28.3333ZM12.6667 28.3333H19.3334V24.6667C19.3334 23.42 19.3334 22.7973 19.0654 22.3333C18.8901 22.0288 18.6376 21.7759 18.3334 21.6C17.8694 21.3333 17.2467 21.3333 16.0001 21.3333C14.7534 21.3333 14.1307 21.3333 13.6667 21.6C13.3626 21.7759 13.1101 22.0288 12.9347 22.3333C12.6667 22.7973 12.6667 23.42 12.6667 24.6667V28.3333Z" fill="white"/>
</svg>
